<svg width="367" height="177" viewBox="0 0 367 177" fill="none" xmlns="http://www.w3.org/2000/svg">
<g clip-path="url(#clip0_48_17589)">
<path fill-rule="evenodd" clip-rule="evenodd" d="M89.2999 155.5C105.6 155.7 126.3 154.1 150.3 157.3C174.3 160.5 213.3 164.2 241.3 164C269.2 163.8 294.7 159.6 311 155.6C327.4 151.6 353 141.3 357.4 138.8C358.2 138.3 358.8 137.8 359.1 137.3H359C359 137.3 359.4 135.1 359 131.9C357.9 124.2 351.8 110.6 322.6 108.9C281.5 106.5 250.7 89.5 228 73C205.3 56.5 166.3 29.5 158.8 31.9C151.2 34.3 149.6 62.2 123.1 71.1C89.4999 82.3 49.6999 76 32.6999 69.2C15.6999 62.4 13.9999 43.4 12.6999 47.9C12.6999 47.9 -6.1001 109.9 1.9999 132.6C1.9999 132.6 5.5999 139.9 6.1999 149.2C23.2999 158.7 73.3999 155.4 89.2999 155.5Z" fill="#895429"/>
<path fill-rule="evenodd" clip-rule="evenodd" d="M137.1 82.7001C169.3 70.7001 161.1 42.9001 164.9 38.1001C165.2 37.7001 165.5 37.5001 165.9 37.3001C166.6 36.4001 166.7 34.9001 166.1 33.3001C162.9 32.0001 160.4 31.4001 158.8 31.9001C151.2 34.3001 148.3 60.7001 117.9 68.6001C83.6997 77.4001 52.3997 63.3001 35.3997 56.5001C22.7997 51.5001 14.0997 43.3001 13.0997 46.9001C12.8997 47.2001 14.9997 73.2001 22.8997 74.2001C28.8997 76.4001 90.3997 100 137.1 82.7001Z" fill="#382300"/>
<path fill-rule="evenodd" clip-rule="evenodd" d="M158.8 31.9001C158.8 31.9001 166.4 42.5001 181.5 53.2001C195.2 62.9001 213.2 74.2001 266.6 98.4001L267.7 95.9001C267.7 95.9001 231.2 78.0001 191.5 47.6001C183 41.1001 161.7 28.9001 158.8 31.9001Z" fill="#895429"/>
<path d="M81.3999 155.6C81.5999 155.2 81.8999 154.8 82.1999 154.3C82.1999 154.3 94.2999 130.5 119.1 120.3C143.9 110.2 170 111.1 202.3 115.5C234.6 119.8 245.9 123 245.9 123C245.9 123 256.5 112.6 261.5 109.8C268.5 105.9 266.5 98.2999 266.5 98.2999C266.5 98.2999 216 71.1999 194.3 52.8999C194.3 52.8999 168.8 33.2999 164.9 38.0999C161 42.8999 156.9 75.7999 122.9 80.5999C88.8999 85.3999 60.1999 90.9999 26.3999 59.1999C26.3999 59.1999 14.6999 43.7999 13.0999 46.9999L11.9999 50.2999C9.19992 59.9999 -5.00008 112.9 1.99992 132.6C1.99992 132.6 5.59992 139.9 6.19992 149.2C21.0999 157.4 60.7999 156 81.3999 155.6Z" fill="#AC7339"/>
<path fill-rule="evenodd" clip-rule="evenodd" d="M366 143.6C364.8 138.1 363.2 134.3 363.2 134.3C363.2 134.3 362.4 132.3 358.9 131.8C358.9 131.8 361.7 136.2 357.3 138.7C352.9 141.2 327.3 151.4 310.9 155.5C294.5 159.5 269.1 163.8 241.2 163.9C213.3 164.1 174.2 160.4 150.2 157.2C126.2 154 105.5 155.5 89.1997 155.4C73.2997 155.2 22.8997 158.5 5.89971 148.9C5.99971 148.9 5.99971 149 6.09971 149C5.99971 148.1 5.99971 147.2 5.79971 146.3C5.69971 146.3 4.69971 146.4 4.69971 148.2V170.9C4.69971 170.9 7.99971 175.5 22.6997 175.5C37.3997 175.5 103.1 175.5 103.1 175.5V166.5C103.1 166.5 134.8 165.4 160.3 170.9C185.8 176.4 266.7 181.1 305.5 168.8C305.5 168.8 329.4 163 344.7 156.4C360 150 367.2 149.2 366 143.6Z" fill="#D4B471"/>
<path fill-rule="evenodd" clip-rule="evenodd" d="M366 143.6C364.8 138.1 363.2 134.3 363.2 134.3C363.2 134.3 362.4 132.3 358.9 131.8C358.9 131.8 361.7 136.2 357.3 138.7C352.9 141.2 327.3 151.4 310.9 155.5C294.5 159.5 269.1 163.8 241.2 163.9C213.3 164.1 174.2 160.4 150.2 157.2C126.2 154 105.5 155.5 89.1997 155.4C73.2997 155.2 22.8997 158.5 5.89971 148.9C5.99971 148.9 5.99971 149 6.09971 149C5.99971 148.1 5.99971 147.2 5.79971 146.3C5.69971 146.3 4.69971 146.4 4.69971 148.2V170.9C4.69971 170.9 7.99971 175.5 22.6997 175.5C37.3997 175.5 103.1 175.5 103.1 175.5V166.5C103.1 166.5 134.8 165.4 160.3 170.9C185.8 176.4 266.7 181.1 305.5 168.8C305.5 168.8 329.4 163 344.7 156.4C360 150 367.2 149.2 366 143.6Z" fill="#D4B471"/>
<path fill-rule="evenodd" clip-rule="evenodd" d="M270.8 166.6C316.2 163.5 349.4 148.9 364.6 138.2C363.9 135.8 363.3 134.4 363.3 134.4C363.3 134.4 362.5 132.4 359 131.9C359 131.9 361.8 136.3 357.4 138.8C353 141.3 327.4 151.5 311 155.6C294.6 159.6 269.2 163.9 241.3 164C213.4 164.2 174.3 160.5 150.3 157.3C126.3 154.1 105.6 155.6 89.2998 155.5C73.3998 155.3 23.2998 158.6 6.1998 149.1C6.0998 149.1 6.0998 149 5.9998 149C6.0998 149 6.0998 149.1 6.1998 149.1C6.0998 148.2 6.0998 147.3 5.8998 146.4C5.7998 146.4 4.7998 146.5 4.7998 148.3V154.4C7.9998 156 14.6998 157.5 27.6998 158.5C64.6998 161.2 114.6 155.8 135.5 158.5C156.5 161.2 191.9 171.9 270.8 166.6Z" fill="#EDD2AB"/>
<path fill-rule="evenodd" clip-rule="evenodd" d="M170.9 51C170.9 52.6 169.6 54 167.9 54C166.3 54 164.9 52.7 164.9 51C164.9 49.4 166.2 48 167.9 48C169.6 48 170.9 49.3 170.9 51Z" fill="#CDC5B1"/>
<path d="M167.9 53.2999C169.17 53.2999 170.2 52.2702 170.2 51C170.2 49.7297 169.17 48.7 167.9 48.7C166.63 48.7 165.6 49.7297 165.6 51C165.6 52.2702 166.63 53.2999 167.9 53.2999Z" fill="#40290F"/>
<path fill-rule="evenodd" clip-rule="evenodd" d="M178.1 57.3C178.1 58.9 176.8 60.3 175.1 60.3C173.5 60.3 172.1 59 172.1 57.3C172.1 55.7 173.4 54.3 175.1 54.3C176.8 54.3 178.1 55.6 178.1 57.3Z" fill="#CDC5B1"/>
<path fill-rule="evenodd" clip-rule="evenodd" d="M177.5 57.3C177.5 58.6 176.5 59.6 175.2 59.6C173.9 59.6 172.9 58.6 172.9 57.3C172.9 56 173.9 55 175.2 55C176.5 54.9 177.5 56 177.5 57.3Z" fill="#40290F"/>
<path fill-rule="evenodd" clip-rule="evenodd" d="M186.1 62.2C186.1 63.8 184.8 65.1999 183.1 65.1999C181.5 65.1999 180.1 63.9 180.1 62.2C180.1 60.6 181.4 59.2 183.1 59.2C184.8 59.2 186.1 60.5 186.1 62.2Z" fill="#CDC5B1"/>
<path fill-rule="evenodd" clip-rule="evenodd" d="M185.5 62.1999C185.5 63.4999 184.4 64.4999 183.2 64.4999C181.9 64.4999 180.9 63.4999 180.9 62.1999C180.9 60.8999 181.9 59.8999 183.2 59.8999C184.5 59.7999 185.5 60.8999 185.5 62.1999Z" fill="#40290F"/>
<path fill-rule="evenodd" clip-rule="evenodd" d="M192.2 66.1999C192.2 67.7999 190.9 69.1999 189.2 69.1999C187.6 69.1999 186.2 67.8999 186.2 66.1999C186.2 64.5999 187.5 63.2 189.2 63.2C190.9 63.2 192.2 64.4999 192.2 66.1999Z" fill="#CDC5B1"/>
<path fill-rule="evenodd" clip-rule="evenodd" d="M191.6 66.1999C191.6 67.4999 190.6 68.4999 189.3 68.4999C188 68.4999 187 67.4999 187 66.1999C187 64.8999 188 63.8999 189.3 63.8999C190.6 63.7999 191.6 64.8999 191.6 66.1999Z" fill="#40290F"/>
<path fill-rule="evenodd" clip-rule="evenodd" d="M198.6 70.3C198.6 71.9 197.3 73.3 195.6 73.3C194 73.3 192.6 72 192.6 70.3C192.6 68.7 193.9 67.3 195.6 67.3C197.2 67.4 198.6 68.7 198.6 70.3Z" fill="#CDC5B1"/>
<path fill-rule="evenodd" clip-rule="evenodd" d="M198 70.3C198 71.6 197 72.6 195.7 72.6C194.4 72.6 193.4 71.6 193.4 70.3C193.4 69 194.4 68 195.7 68C196.9 68 198 69.1 198 70.3Z" fill="#40290F"/>
<path fill-rule="evenodd" clip-rule="evenodd" d="M205.4 73.6001C205.4 75.2001 204.1 76.6001 202.4 76.6001C200.8 76.6001 199.4 75.3001 199.4 73.6001C199.4 72.0001 200.7 70.6001 202.4 70.6001C204.1 70.6001 205.4 71.9001 205.4 73.6001Z" fill="#CDC5B1"/>
<path fill-rule="evenodd" clip-rule="evenodd" d="M204.8 73.6C204.8 74.9 203.8 75.9 202.5 75.9C201.2 75.9 200.2 74.9 200.2 73.6C200.2 72.3 201.2 71.3 202.5 71.3C203.7 71.2 204.8 72.3 204.8 73.6Z" fill="#40290F"/>
<path fill-rule="evenodd" clip-rule="evenodd" d="M212.3 78C212.3 79.6 211 81 209.3 81C207.7 81 206.3 79.7 206.3 78C206.3 76.4 207.6 75 209.3 75C211 75 212.3 76.4 212.3 78Z" fill="#CDC5B1"/>
<path fill-rule="evenodd" clip-rule="evenodd" d="M211.7 77.9999C211.7 79.2999 210.7 80.2999 209.4 80.2999C208.1 80.2999 207.1 79.2999 207.1 77.9999C207.1 76.6999 208.1 75.6999 209.4 75.6999C210.7 75.5999 211.7 76.6999 211.7 77.9999Z" fill="#40290F"/>
<path d="M217 84.8999C218.657 84.8999 220 83.5568 220 81.8999C220 80.243 218.657 78.8999 217 78.8999C215.343 78.8999 214 80.243 214 81.8999C214 83.5568 215.343 84.8999 217 84.8999Z" fill="#CDC5B1"/>
<path d="M217 84.1999C218.27 84.1999 219.3 83.1701 219.3 81.8999C219.3 80.6296 218.27 79.5999 217 79.5999C215.73 79.5999 214.7 80.6296 214.7 81.8999C214.7 83.1701 215.73 84.1999 217 84.1999Z" fill="#40290F"/>
<path fill-rule="evenodd" clip-rule="evenodd" d="M227.4 86.1001C227.4 87.7001 226.1 89.1001 224.4 89.1001C222.8 89.1001 221.4 87.8001 221.4 86.1001C221.4 84.5001 222.7 83.1001 224.4 83.1001C226 83.2001 227.4 84.5001 227.4 86.1001Z" fill="#CDC5B1"/>
<path fill-rule="evenodd" clip-rule="evenodd" d="M226.7 86.1C226.7 87.4 225.6 88.4 224.4 88.4C223.1 88.4 222.1 87.4 222.1 86.1C222.1 84.8 223.1 83.8 224.4 83.8C225.7 83.8 226.7 84.8 226.7 86.1Z" fill="#40290F"/>
<path fill-rule="evenodd" clip-rule="evenodd" d="M235.3 89.8999C235.3 91.4999 234 92.8999 232.3 92.8999C230.7 92.8999 229.3 91.5999 229.3 89.8999C229.3 88.2999 230.6 86.8999 232.3 86.8999C233.9 86.9999 235.3 88.2999 235.3 89.8999Z" fill="#CDC5B1"/>
<path fill-rule="evenodd" clip-rule="evenodd" d="M234.6 89.8999C234.6 91.1999 233.5 92.1999 232.3 92.1999C231 92.1999 230 91.0999 230 89.8999C230 88.5999 231 87.5999 232.3 87.5999C233.6 87.5999 234.6 88.5999 234.6 89.8999Z" fill="#40290F"/>
<path fill-rule="evenodd" clip-rule="evenodd" d="M244.1 94.2C244.1 95.8 242.8 97.2 241.1 97.2C239.5 97.2 238.1 95.9 238.1 94.2C238.1 92.6 239.4 91.2 241.1 91.2C242.7 91.2 244.1 92.6 244.1 94.2Z" fill="#CDC5B1"/>
<path d="M241.1 96.4999C242.371 96.4999 243.4 95.4702 243.4 94.1999C243.4 92.9296 242.371 91.8999 241.1 91.8999C239.83 91.8999 238.8 92.9296 238.8 94.1999C238.8 95.4702 239.83 96.4999 241.1 96.4999Z" fill="#40290F"/>
<path fill-rule="evenodd" clip-rule="evenodd" d="M252.5 98.5C252.5 100.1 251.2 101.5 249.5 101.5C247.9 101.5 246.5 100.2 246.5 98.5C246.5 96.9 247.8 95.5 249.5 95.5C251.1 95.5 252.5 96.9 252.5 98.5Z" fill="#CDC5B1"/>
<path fill-rule="evenodd" clip-rule="evenodd" d="M251.8 98.4999C251.8 99.7999 250.8 100.8 249.5 100.8C248.2 100.8 247.2 99.7999 247.2 98.4999C247.2 97.1999 248.2 96.1999 249.5 96.1999C250.8 96.0999 251.8 97.1999 251.8 98.4999Z" fill="#40290F"/>
<path fill-rule="evenodd" clip-rule="evenodd" d="M261.7 103.3C261.7 104.9 260.4 106.3 258.7 106.3C257.1 106.3 255.7 105 255.7 103.3C255.7 101.7 257 100.3 258.7 100.3C260.4 100.4 261.7 101.7 261.7 103.3Z" fill="#CDC5B1"/>
<path d="M258.7 105.6C259.97 105.6 261 104.57 261 103.3C261 102.03 259.97 101 258.7 101C257.43 101 256.4 102.03 256.4 103.3C256.4 104.57 257.43 105.6 258.7 105.6Z" fill="#40290F"/>
<path fill-rule="evenodd" clip-rule="evenodd" d="M261 103.9C261 103.9 257.3 105.3 257.3 101.5C257.3 101.5 258.4 86.9999 262.5 92.2999C262.6 92.1999 258.7 96.5999 261 103.9Z" fill="#D4B471"/>
<path fill-rule="evenodd" clip-rule="evenodd" d="M251.3 97C251.3 97 254.3 83.7 244.3 82.5C244.3 82.5 250.1 84.8 247.9 96.8C247.2 100.3 251.2 100.1 251.3 97Z" fill="#D4B471"/>
<path fill-rule="evenodd" clip-rule="evenodd" d="M228.1 73.2001C228.1 73.2001 234.1 70.7001 234.4 87.9001C234.4 89.1001 234.1 91.3001 232.3 90.8001C230.8 90.4001 230.5 90.0001 231.2 87.9001C232.7 83.6001 230.6 74.9001 228.1 73.2001Z" fill="#D4B471"/>
<path fill-rule="evenodd" clip-rule="evenodd" d="M216.7 65C216.7 65 223.4 64.6 220.3 73.6C218.3 79.5 217.5 84.9 214.6 81.9C214.6 81.9 214.7 80.3 217.4 74.7C220.1 69.1 218.7 66.4 216.7 65Z" fill="#D4B471"/>
<path fill-rule="evenodd" clip-rule="evenodd" d="M204.6 56.1001C204.6 56.1001 208.5 56.2001 207.3 60.9001C205.9 66.5001 204.7 73.2001 204.7 73.2001C204.7 73.2001 199.2 76.3001 200.7 72.0001C202.8 66.2001 205.4 61.8001 204.6 56.1001Z" fill="#D4B471"/>
<path fill-rule="evenodd" clip-rule="evenodd" d="M194.4 48.6001C194.4 48.6001 201.7 48.5001 197 57.3001C192.4 66.2001 191 69.0001 188.5 66.5001C187.1 65.1001 190.9 61.5001 193.7 56.8001C196.5 52.2001 195.3 49.3001 194.4 48.6001Z" fill="#D4B471"/>
<path fill-rule="evenodd" clip-rule="evenodd" d="M182.9 40.7C182.9 40.7 193.3 41.9 184.3 51.9C176.7 60.3 175.2 59.7 174.4 58.4C174 57.8 173.6 56.2 179.8 51.9C185.3 48 185.2 41.1 182.9 40.7Z" fill="#D4B471"/>
<path fill-rule="evenodd" clip-rule="evenodd" d="M198.3 51C198.3 51 202.2 51.1 201.4 53.8C200.6 56.4 184.3 65.2 183.5 63.8C183.5 63.8 180.3 61.6 183.6 60C188.2 57.4 196.9 54.1 198.3 51Z" fill="#D4B471"/>
<path fill-rule="evenodd" clip-rule="evenodd" d="M207.6 58.3001C207.6 58.3001 212.1 58.0001 211.2 60.9001C210.3 63.8001 205.4 67.0001 197.8 71.1001C197.8 71.1001 191.8 70.3001 195.6 68.0001C202.2 63.9001 206.8 61.6001 207.6 58.3001Z" fill="#D4B471"/>
<path fill-rule="evenodd" clip-rule="evenodd" d="M221.4 68C221.4 68 224.7 68.5 224.1 70.3C223.1 73.2 216.4 77.9 211.7 78.4C211.7 78.4 210 80.9 208.8 78.8C208 77.3 208.6 76.3 209.6 75.8C216.7 72.7 217.9 73.9 221.4 68Z" fill="#D4B471"/>
<path fill-rule="evenodd" clip-rule="evenodd" d="M234.5 76.6999C234.5 76.6999 238 75.5999 238.1 78.8999C238.2 82.1999 227.9 85.9999 226.7 86.0999C226.7 86.0999 225.3 86.5999 224.4 86.0999C223.4 85.5999 223 84.0999 224.4 83.7999C229.3 82.6999 233.7 80.9999 234.5 76.6999Z" fill="#D4B471"/>
<path fill-rule="evenodd" clip-rule="evenodd" d="M249.1 85.2C249.1 85.2 252.4 83.9 252.5 87.1C252.6 90.9 246.6 97.1 242.5 96.1C242.5 96.1 238.7 94.7 243.1 92.8C247.5 91.1 250.7 89.3 249.1 85.2Z" fill="#D4B471"/>
<path fill-rule="evenodd" clip-rule="evenodd" d="M170 51.9999C170 51.9999 186.8 52.3999 189.8 45.3999C189.8 45.3999 189.2 40.9999 186.8 42.8999C180.2 47.9999 178.3 48.5999 168.5 48.6999C168.5 48.6999 164.5 50.9999 170 51.9999Z" fill="#D4B471"/>
<path fill-rule="evenodd" clip-rule="evenodd" d="M184.7 44.4999C184.7 44.4999 147.5 30.0999 158.8 12.2999C170.1 -5.6001 183.8 32.5999 185.5 42.4999L183.2 42.0999C183.2 42.0999 175.9 17.1999 168 13.9999C160 10.6999 159.9 17.8999 161.7 21.0999C163.5 24.1999 169.8 35.6999 184.7 44.4999Z" fill="#D4B471"/>
<path fill-rule="evenodd" clip-rule="evenodd" d="M180.8 39.3C180.8 39.3 173 13.7 185.5 4.10003C198 -5.49998 206.5 2.60003 195.6 23.6C184.7 44.6 184.7 44.6 184.7 44.6L183.2 42.1C183.2 42.1 190.8 27.5 193.3 19.2C195.8 11 197.6 2.00003 191.7 5.70003C185.7 9.40003 181.9 12.8 182.2 26.1C182.4 39.4 182.2 43.4 182.2 43.4L180.8 39.3Z" fill="#D4B471"/>
<path fill-rule="evenodd" clip-rule="evenodd" d="M186.8 42.9001C186.8 42.9001 190.5 45.0001 200.7 46.1001C210.9 47.2001 219.5 57.4001 219.4 58.3001C219.3 59.2001 222.1 59.6001 222.1 59.6001C222.1 59.6001 223.9 58.0001 222.1 53.9001C220.3 49.8001 216.3 42.0001 201.6 42.4001C186.9 42.9001 182.9 40.6001 182.9 40.6001C182.9 40.6001 178.7 43.3001 186.8 42.9001Z" fill="#D4B471"/>
<path fill-rule="evenodd" clip-rule="evenodd" d="M182.1 38.6001C182.1 38.6001 194.7 47.0001 202.3 49.9001C209.9 52.8001 219 61.8001 223.5 62.2001C228 62.6001 226.7 66.2001 226.7 66.2001C226.7 66.2001 224.1 68.0001 211.3 58.1001C198.5 48.2001 191.9 49.6001 188.2 45.7001C184.5 41.8001 182 44.0001 182.1 38.6001Z" fill="#D4B471"/>
</g>
<defs>
<clipPath id="clip0_48_17589">
<rect width="366.1" height="176.7" fill="white"/>
</clipPath>
</defs>
</svg>
