<svg width="439" height="288" viewBox="0 0 439 288" fill="none" xmlns="http://www.w3.org/2000/svg">
<g clip-path="url(#clip0_49_59)">
<path d="M0 279.6C0 284 98.1 287.5 219.1 287.5C340.1 287.5 438.2 284 438.2 279.6C438.2 275.2 340.1 271.7 219.1 271.7C98.1 271.6 0 275.2 0 279.6Z" fill="#2D2D2D"/>
<path d="M167.2 120.9C167.2 120.9 165.5 123.3 156.4 124.8C147.3 126.2 135.8 126.3 135.8 126.3C135.8 126.3 115.8 151.4 108.8 161.9C104.5 168.5 80.2 203.5 80.2 203.5L81.2 205.4L167.2 120.9Z" fill="#D3D3D8"/>
<path d="M125.2 141.8C136.7 127.7 136.7 127.7 136.7 127.7C136.7 127.7 161 127.5 163.7 123.6C166.5 119.8 164.4 113 167.1 107.5C169.8 102 198.7 79.3 206.3 81.2C206.3 81.2 214.8 85.8 208.5 90.7C202.2 95.7 189.5 106.7 186.4 114.3C183.3 121.9 192 123.9 198.6 122.9C205.3 121.9 209.2 122 214.2 116.6C219.2 111.2 231.8 98.2 236.5 100.9C241.2 103.6 250.1 106.8 242.3 117.1C234.5 127.5 224.7 136.7 230 140.5C235.3 144.3 243.2 144.8 247 140.7C250.8 136.6 268.8 109.1 274.6 113.6C280.4 118.1 288.1 119.3 282.2 129.5C276.3 139.7 271.1 144 276.2 147.5C281.3 151.1 283.6 152.7 290.1 146C296.7 139.3 301.1 130.6 309.7 134.3C318.3 137.9 317.6 143.8 313.1 149.6C308.6 155.3 298.3 163.8 302 168C305.7 172.2 311.2 177.4 303 185.4C294.8 193.4 241.7 219.8 241.7 219.8C241.7 219.8 215.9 215.2 191.6 222.4C167.3 229.6 131.9 217.6 125.7 216.2C119.5 214.7 80.8 205.1 80.8 205.1C80.8 205.1 113.7 155.9 125.2 141.8ZM231.4 120.9C234.8 120.7 241.6 111.4 238.8 109C235.9 106.6 232.3 106.4 229.9 108.5C219.2 118 228.1 121.1 231.4 120.9ZM304 150.3C308.4 145.3 311.1 140.1 307.4 137.8C303.7 135.5 299.3 139.2 296 145.3C290.5 155.5 299.6 155.2 304 150.3ZM265.9 136.9C269.7 136.5 278.2 124.1 274.7 120.8C271.1 117.5 266.8 121.6 264.2 126.8C261.3 132.2 262.1 137.3 265.9 136.9ZM203.3 137.6C199.5 134.4 157.4 139.9 150.4 142.3C146.8 143.5 133.4 160.1 131.4 166.1C129.4 172.1 139 173.8 158.7 170.6C178.4 167.4 199.7 161.2 205.9 156.9C212.2 152.8 207.1 140.8 203.3 137.6ZM285 175.4C291.6 173.1 276.5 164.3 266.1 157.8C255.7 151.3 236.2 160.9 232.5 168.9C229 176.5 233.6 176.7 237 179.5C240.5 182.4 278.5 177.7 285 175.4ZM157 219.8L170.7 214.3C181 212.3 194.8 207.7 204.6 209.3C210.1 210.2 218.6 213.2 228.9 216.2C236.1 212.1 251.1 203.2 256.1 197.9C262.7 190.8 224.3 195.8 224.3 195.8L200.1 180.1L115.8 193.2L104.9 201.5C116.6 204.6 143.5 216.8 157 219.8Z" fill="#231F20"/>
<path d="M104.8 201.6L115.7 193.3L200 180.2L224.2 195.9C224.2 195.9 262.6 190.9 256 198C251.1 203.3 236.1 212.1 228.8 216.3C218.5 213.2 210 210.3 204.5 209.4C194.7 207.8 180.9 212.4 170.6 214.4L156.9 219.9C143.5 216.8 116.6 204.6 104.8 201.6ZM142.7 192.4C139.1 193.9 141.5 194.1 143.9 193.5C146.2 192.9 144.2 191.7 142.7 192.4ZM156.3 190.4C152.8 190.6 157.9 193.9 160.2 191.9C162.7 190 158.2 190.3 156.3 190.4ZM165.2 191C161 191 163.5 197.7 167.3 196.2C171.2 194.5 167.2 191 165.2 191ZM171 187.2C166.3 189.1 171.1 193.7 174.2 191.3C177.3 189 173.3 186.3 171 187.2ZM181.6 196.2C187.8 194.7 183 191 180 190.3C177.1 189.7 175.4 197.8 181.6 196.2ZM178.7 186.3C176.1 187.2 177.9 189.3 180.1 188.4C182.2 187.4 180.8 185.6 178.7 186.3ZM185.5 186.9C181.9 188 185.4 192.4 188.7 191.2C192 190 188.2 186.1 185.5 186.9ZM197.3 193.9C200 192.1 197.2 189.2 195.4 189.5C190.2 190.5 194.7 195.7 197.3 193.9ZM205.7 198.5C209.2 196.3 204.6 193.8 203 194.5C199.7 196.2 202.2 200.7 205.7 198.5ZM193.6 183.9C189.6 185.1 193.9 189.5 197 187.6C200.1 185.7 196.3 183.2 193.6 183.9ZM200.7 185.7C197.4 186.5 200.7 191.4 203.8 190.6C206.8 189.9 202.7 185.2 200.7 185.7ZM208.4 189.8C204.6 189.5 208.7 195.5 212.3 194.3C215.8 193.3 210.3 190 208.4 189.8ZM223.8 199.9C221.4 201.7 226.3 203 228.4 202C230.6 201 225.5 198.6 223.8 199.9ZM229.5 206.6C230.8 205.4 229.1 203.9 227.7 205.4C226.1 207.1 228.2 207.7 229.5 206.6ZM220.4 198.3C223.7 196.4 217.4 194.7 216.3 195.3C213.6 196.8 217.1 200.2 220.4 198.3ZM222.1 206C225.7 204 220.5 200.5 218.4 201.7C214.8 203.5 218.4 208 222.1 206ZM211.5 197.9C206.9 199.1 209.9 203.2 212.7 202.4C215.6 201.6 213.4 197.4 211.5 197.9ZM215 208C218.1 207.1 214.5 202.9 212.2 205.4C211.2 206.5 211.9 208.9 215 208ZM207.3 205C210.8 203.3 207 200.8 205.5 201.5C202.5 203.2 203.8 206.8 207.3 205ZM199.6 201.6C202.7 201 197.8 197.7 196.8 198.1C192 200.2 196.5 202.2 199.6 201.6ZM188 194.2C184.3 195.8 186.6 200.5 190.2 199.3C193.8 198.1 190 193.3 188 194.2ZM193.7 204.7C196.6 203.8 192.3 201 189.9 202.3C186.4 204.2 190.8 205.6 193.7 204.7ZM185.5 202C188.6 200.6 184.7 197.6 181.7 198.4C176.9 199.7 182.4 203.4 185.5 202ZM173.8 194.8C170.6 196.1 173.2 200.8 176.3 199.1C179.3 197.4 175.9 193.9 173.8 194.8ZM178.6 204.4C181.9 203.2 177.7 201.6 175.4 202.7C173.6 203.6 175.4 205.6 178.6 204.4ZM170.6 202.9C172.7 200.6 169.6 198.4 168.3 198.7C162.5 200.4 168.4 205.2 170.6 202.9ZM162.7 198.4C165.6 195.7 161.9 195.8 158.7 195.9C155 196.1 159.9 201.1 162.7 198.4ZM149.5 192.4C144.7 194.6 150.6 199.2 153.6 196.3C156.7 193.3 151.3 191.6 149.5 192.4ZM156.8 202.2C159.3 201.1 154 198.3 152 199.2C148.6 200.7 154.3 203.3 156.8 202.2ZM147 200.5C149 198.8 145.9 195.5 143.5 196.4C139.9 197.8 145 202.1 147 200.5ZM134 193.8C131.7 195.5 136 198.6 138.9 196.4C141.8 194.1 135.4 192.8 134 193.8ZM140.9 202.6C143.7 202.2 139.1 198.8 137.5 199.5C133.8 201.1 138.1 202.9 140.9 202.6ZM131.7 200.2C134.3 198.5 130.3 195.7 128.4 196.2C125.2 197 129.1 201.9 131.7 200.2ZM124.7 195.8C125.7 194.2 122 193.9 120.3 194.8C117.6 196.2 123.7 197.4 124.7 195.8ZM125.6 201.4C126.2 200.3 125.3 199.1 123.7 199.6C120.4 200.6 125 202.5 125.6 201.4ZM117.6 200.7C119 200.9 118.5 198.9 118.4 197.6C118.3 196.3 115 197.6 113.7 198.3C112.8 198.8 116.2 200.5 117.6 200.7Z" fill="#D3D3D8"/>
<g opacity="0.7">
<path opacity="0.7" d="M231.7 141.6C224.2 140.8 229.1 129.8 230.6 126.9C232.2 124.1 227.7 124.2 230.7 122.2C231.1 121.9 231.6 121.4 232.1 120.7C235.6 119.5 241.3 111.4 238.8 109C239.7 107.2 240.3 106 240.3 106C240.5 105.1 241.1 104.5 242 104.2C245.4 106.7 247.5 110.4 242.4 117.2C234.6 127.6 224.8 136.8 230.1 140.6C230.6 141 231.1 141.3 231.7 141.6Z" fill="#272434"/>
</g>
<g opacity="0.7">
<path opacity="0.7" d="M274.4 132.3C278.3 125.5 278.3 119.1 278.3 119.1C278.3 119.1 278.7 118.2 279.4 116.9C283.6 119.6 286.7 122.2 282.4 129.7C276.5 139.9 271.3 144.2 276.4 147.7C270.5 148.9 270.6 139.1 274.4 132.3Z" fill="#272434"/>
</g>
<g opacity="0.7">
<path opacity="0.7" d="M298.1 167.7C296.1 161 304.5 156.6 309.2 151.8C312.1 148.9 314.3 142.8 315.6 138.6C317.8 141.9 316.5 145.8 313.4 149.7C308.9 155.4 298.6 163.9 302.3 168.1C306 172.3 311.5 177.5 303.3 185.5C295.1 193.5 242 219.9 242 219.9C242 219.9 296.5 188.6 303 182.8C309.4 177 300.1 174.4 298.1 167.7Z" fill="#272434"/>
</g>
<path d="M171.4 10.2C168.1 14.7 166 20 164 25.2C162.5 29 161.1 32.8 159.6 36.6L154.3 27.3L156 16.1C156.8 10.8 159.4 5.99999 163.4 2.4C167.9 -1.6 174.6 -0.500005 177.7 4C175.3 5.7 173.1 7.9 171.4 10.2Z" fill="#F26522"/>
<path d="M164 25.2C166 20 168.1 14.7 171.4 10.2C173.1 7.79999 175.3 5.69999 177.7 4.09999C178.3 4.99999 178.8 5.99999 179.1 7.19999L180.1 11C184.5 27.9 186.5 45.3 185.9 62.7L185.3 81.3L159.6 36.7C161 32.8 162.5 29 164 25.2Z" fill="#2D2D2D"/>
<path d="M133.4 21.5C140.3 22.5 146.3 27.2 148.7 34L165.5 81.8C168.2 89.5 172.7 96.6 178.5 102.4L229.9 153.5C237.6 161.2 247.3 166.4 258 168.7L293.6 176.3C298 177.2 302.2 176.4 305.6 174.4C301.8 178.5 295.9 180.7 289.7 179.3L254.1 171.7C243.5 169.4 233.7 164.2 226 156.5L174.6 105.4C168.8 99.6 164.3 92.6 161.6 84.8L144.8 37C142.2 29.7 135.6 24.8 128.1 24.3L133.4 21.5Z" fill="#D3D3D8"/>
<path d="M293.6 176.2L258 168.6C247.4 166.3 237.6 161.1 229.9 153.4L178.5 102.3C172.7 96.5 168.2 89.5 165.5 81.7L148.7 33.9C146.3 27.1 140.3 22.3 133.4 21.4L138.7 18.5C149.4 12.6 162.9 17.7 167 29.3L185.3 81.2L230.1 125.7C244.1 139.6 261.8 149.4 281 153.8L316.7 161.9C317.4 167.2 309 170.7 305.7 174.2C302.2 176.3 298 177.2 293.6 176.2Z" fill="#161414"/>
<path d="M34.2 116.6V47.2C34.2 40.6 40 35.6 46.5 36.4L52 37.1L60.3 38.2L67.7 39.2C85.1 41.6 102.8 38.3 118.2 29.8L128.2 24.3C135.7 24.8 142.4 29.7 144.9 37L161.7 84.8C164.4 92.5 168.9 99.6 174.7 105.4L198.8 129.4L202.5 133.1L226.1 156.5C233.8 164.2 243.5 169.4 254.2 171.7L269.7 175L275.4 176.2L289.8 179.3C301.4 181.8 310.3 171.9 315.5 161.7L375.8 175.4L383.8 177.2L388.2 178.2C402.9 181.6 415.2 191.5 421.6 205.2L428 219L354.2 251.2L111.7 247.5L11.1 188.6L34.2 116.6Z" fill="#DE5012"/>
<path d="M24.3 147.5L123.6 205.7L366.1 209.4L410.3 190.1C414.9 194.4 418.8 199.5 421.5 205.4L427.9 219.2L354.1 251.4L111.6 247.7L11 188.8L24.3 147.5Z" fill="#DD2B14"/>
<path d="M138.9 182.4C140.9 176.4 154.3 159.9 157.9 158.6C164.9 156.2 207 150.7 210.8 153.8C211.9 154.7 213.1 156.4 214.2 158.4C208.3 158.3 196.4 158.1 187.8 158.9C176.1 160 167.5 158.7 160.5 163.6C153.5 168.5 146.2 174.9 144.9 178.7C143.5 182.5 149.5 184 151.8 184C153.4 184 162.9 185.5 168.5 186.4C167.8 186.5 167.1 186.6 166.3 186.8C146.5 190.1 137 188.3 138.9 182.4Z" fill="#DE5012"/>
<path d="M184.1 236.5C184.1 236.5 74.9 215.2 54.9 211.6C34.9 208 27.1 229.9 24 232.9C22.3 234.6 16.2 233.5 11.2 232.3C11.4 236.1 11.7 240 12 243.9C23.6 247.2 45.5 253.7 47.7 255.8C50.7 258.7 69.7 276.6 75.3 276.6C80.9 276.6 283.2 280.3 289.1 278.3C291.5 277.5 295.7 273 300.2 268.4C284 268.6 230.7 269.1 223.9 269.1C215.8 269.1 184.1 236.5 184.1 236.5Z" fill="#231F20"/>
<path d="M69.1 242.8C69.1 242.8 82.3 266.6 89.3 266.6C96.3 266.6 150.2 268.9 151.6 267.6C151.6 267.6 157.2 261.1 134.8 254.7C134.8 254.7 76.9 238.2 69.1 242.8Z" fill="#DD2B14"/>
<path d="M72.4 242.8C72.4 242.8 84.5 262.1 90.9 262.1C97.3 262.1 142.7 266 144 264.8C144 264.8 153.5 259.7 132.9 253.8C132.9 253.7 79.5 238.5 72.4 242.8Z" fill="#DE5012"/>
<path d="M83.6 242.5C83.6 242.5 92.2 256.1 96.7 256.1C101.3 256.1 133.3 258.9 134.2 258C134.2 258 140.9 254.4 126.3 250.2C126.3 250.3 88.6 239.5 83.6 242.5Z" fill="#231F20"/>
<path d="M95.4 221.6C95.4 221.6 107.5 211 101.6 205.4C96.2 200.2 30.9 188.6 11.1 188.6C10.5 202.2 10.5 216.9 11.3 232.6C19.5 234.6 28.1 238.6 30.5 231.1C33 223.2 41.4 211.7 53.5 213.6C65.5 215.5 93.4 222.6 95.4 221.6Z" fill="#D3D3D8"/>
<path d="M321.5 249.1C298.2 247.9 233.5 238.7 218.8 235.6C206.2 232.9 192 236.3 185.7 238.1C192 244.5 216.9 269.2 223.9 269.2C230.7 269.2 284 268.7 300.2 268.5C304.4 264.2 308.9 259.7 312.4 258.1C314.7 255.1 317.9 252.1 321.5 249.1Z" fill="#D3D3D8"/>
<path d="M434.5 229.1C434.5 229.1 434.4 229.1 434.4 229C434.4 229 434.4 229 434.5 229.1C434.5 229 434.5 229 434.5 229.1ZM434.7 229.2C434.6 229.1 434.6 229.1 434.5 229C434.6 229.1 434.7 229.2 434.7 229.2ZM433.8 228.6C434 228.7 434.2 228.8 434.4 229C426.8 242.1 379.8 246.5 364.4 247.8C349.9 249.1 341.4 264.1 337.2 268.9C336.2 269.5 335.2 270 334.2 270.5C329.8 270.2 312.5 258.2 312.2 258C322 246.3 346.2 231.3 346.2 231.3C397.7 228.7 416.6 220.7 423.5 215C433.5 217.7 433.8 228.6 433.8 228.6ZM435.3 229.8C435.2 229.7 435.1 229.5 434.9 229.4C435.1 229.5 435.2 229.7 435.3 229.8ZM434.9 229.4C434.8 229.3 434.8 229.3 434.7 229.2C434.8 229.3 434.9 229.4 434.9 229.4ZM437.3 234.1V234C437.3 234.1 437.3 234.1 437.3 234.1Z" fill="#231F20"/>
<path d="M437.4 254.9C437.4 254.9 440.6 233.3 434.4 228.9C426.8 242.1 379.8 246.4 364.4 247.7C348.2 249.1 339.5 267.8 335.9 270C332.3 272.2 322.2 263.2 316.7 258C311.2 252.7 294.9 276.2 289 278.2C283.1 280.3 80.8 276.5 75.2 276.5C69.6 276.5 50.6 258.6 47.6 255.7C45.4 253.6 23.5 247.1 11.9 243.8C11.9 244 11.9 244.2 11.9 244.3C11.9 244.3 7.40002 242.8 7.40002 244.3C7.40002 245.8 -4.59998 278.1 56.9 283.5C118.4 288.9 290.2 286.1 308.2 283.8C308.2 283.8 314 271.7 315.5 273.2C317 274.7 319.5 282.7 327.3 281.5C335.4 280.5 430.8 263 437.4 254.9Z" fill="#DD2B14"/>
<path d="M283.8 180.5C283.8 180.5 271.2 174.1 262.6 177.8C254 181.4 244.2 184 245.7 189.6C247.2 195.2 260.5 197.5 260.5 197.5C260.5 197.5 242.5 202.6 236.8 194.4C231.1 186.2 246.8 168.8 265.9 169.6C285 170.3 283.8 180.5 283.8 180.5Z" fill="#DE5012"/>
<path d="M296.2 142.6C296.2 142.6 298.5 133.5 293.8 134.6C289 135.6 282.3 137.9 283.7 140.5C285.1 143.1 293.2 145.4 296.2 142.6Z" fill="#1F1D19"/>
<path d="M229.7 126.6C223.6 124.2 237.9 106.7 235.1 103.7C232.3 100.8 236.3 103.3 242.2 105C248.1 106.7 248.2 112.8 244.7 116.9C241.2 121.2 232.4 127.6 229.7 126.6Z" fill="#D3D3D8"/>
<g opacity="0.5">
<path opacity="0.5" d="M234.6 104C234.6 104 239 105.1 234.5 109.8C230 114.5 217.1 116.5 208.6 120.6C200.1 124.8 195 128.1 189.6 129.3C184.3 130.5 178.2 129.4 182.8 122.7C187.4 116.1 234.6 104 234.6 104Z" fill="#1F1D19"/>
</g>
<path d="M181.8 126.5C181.2 124.4 178.5 121.3 188.8 115.2C199.1 109.1 221.1 104.5 226.3 101.8C231.5 99.1 241.9 103.8 233 108.3C224.1 112.8 209 117.7 200 122.5C191 127.4 182.9 129.9 181.8 126.5Z" fill="#D3D3D8"/>
<g opacity="0.5">
<path opacity="0.5" d="M257.9 116.4C257.8 113.9 259.1 115.6 259.8 119.8C260.6 124.1 259.9 124.3 255 131.3C250 138.3 232 152.1 231.6 141.5C231.5 135.5 257.9 116.4 257.9 116.4Z" fill="#1F1D19"/>
</g>
<path d="M231.7 141.6C228.9 138.9 233.5 134 239.3 127.1C245.1 120.2 258.5 108.3 259.8 116.6C261 124.8 238.7 148.4 231.7 141.6Z" fill="#D3D3D8"/>
<path d="M276.7 138.1C281.2 133.2 277.5 128.6 284.8 129.7C292.1 130.8 300.6 132.4 293.5 138.1C286.5 143.9 276.7 138.1 276.7 138.1Z" fill="#D3D3D8"/>
<path d="M264.7 131.7C260.6 128.6 259.3 116.4 262 114.7C264.7 113.1 278.8 118.2 277.3 121.8C275.8 125.4 267 133.5 264.7 131.7Z" fill="#D3D3D8"/>
<path d="M316.4 152C316.4 152 316.3 141.2 312.3 141.9C308.3 142.5 301.6 147.3 302.7 148.8C303.7 150.2 316.4 152 316.4 152Z" fill="#1F1D19"/>
<g opacity="0.5">
<path opacity="0.5" d="M279.4 133.4C280.5 131.6 284.7 129.9 285.1 135.4C285.6 140.9 283.3 145 279.8 148C276.2 151 266 160 261 160C256 160 251.1 157.2 254.3 153.5C257.5 149.9 279.4 133.4 279.4 133.4Z" fill="#1F1D19"/>
</g>
<path d="M279.6 143.6C275.4 146.8 267.1 157 258.7 156.9C250.3 156.8 250.4 153 262.4 143.7C274.4 134.4 277.3 126.7 282.8 131C288.1 135.2 283.3 140.7 279.6 143.6Z" fill="#D3D3D8"/>
<g opacity="0.5">
<path opacity="0.5" d="M310 142.7C310 142.7 317.9 144.9 313.3 147.8C308.7 150.7 297 154.6 294.4 158.8C291.8 163.1 282.8 174.3 278.9 174.6C276.9 174.8 270.2 170.9 277.4 162C284.6 153.1 308.6 142.3 310 142.7Z" fill="#1F1D19"/>
</g>
<path d="M275.6 163C280.1 153.9 283.6 144.7 291.4 140.6C299.2 136.6 306.2 132.8 310.2 136.7C314.3 140.6 316.9 143.7 312.3 145.3C307.7 146.9 302.4 151.8 297 153.8C291.6 155.9 287.1 165.1 282.3 169.5C277.6 173.9 271.1 171.9 275.6 163Z" fill="#D3D3D8"/>
<g opacity="0.5">
<path opacity="0.5" d="M304.7 138.7C304.7 138.7 299.6 137 301.1 140.2C302.6 143.4 307.7 149.5 307.6 152.7C307.5 155.9 308.5 164.9 310.6 166.5C311.7 167.3 316.7 167.7 315.9 160.5C315 153.2 305.6 139 304.7 138.7Z" fill="#1F1D19"/>
</g>
<path d="M316.5 161.6C317.2 155.2 318.6 149.2 315.7 144.3C312.8 139.4 310.3 134.9 306.6 135.5C302.9 136.1 300.4 136.7 302.4 139.2C304.4 141.7 305.6 146.1 307.8 149.1C310 152.1 309.3 158.5 310.3 162.5C311.5 166.6 315.8 167.8 316.5 161.6Z" fill="#D3D3D8"/>
<path d="M174.7 137.1C174.7 137.1 173 139.5 163.9 141C154.8 142.4 143.3 142.5 143.3 142.5C143.3 142.5 123.3 167.6 116.3 178.1C112 184.7 87.7 219.7 87.7 219.7L88.7 221.6L174.7 137.1Z" fill="#D3D3D8"/>
<path d="M132.8 158C144.3 143.9 144.3 143.9 144.3 143.9C144.3 143.9 168.6 143.7 171.3 139.8C174.1 136 172 129.2 174.7 123.7C177.4 118.2 174.1 99.3 215.2 96.3C215.2 96.3 221.3 100.8 215 105.8C208.7 110.8 190.4 115.6 191.4 130.1C192 138.2 199.6 140.1 206.3 139.1C213 138.1 216.9 138.2 221.9 132.8C226.9 127.4 239.5 114.4 244.2 117.1C248.9 119.8 257.8 123 250 133.3C242.2 143.7 232.4 152.9 237.7 156.7C243 160.5 250.9 161 254.7 156.9C258.5 152.8 276.6 125.3 282.3 129.8C288.1 134.3 295.8 135.5 289.9 145.7C284 155.9 278.8 160.2 283.9 163.7C289 167.3 291.3 168.9 297.8 162.2C304.3 155.5 308.8 146.8 317.4 150.5C326 154.1 325.3 160 320.8 165.8C316.3 171.5 306 180 309.7 184.2C313.4 188.4 318.9 193.6 310.7 201.6C302.5 209.6 249.4 236 249.4 236C249.4 236 223.6 231.4 199.3 238.6C175 245.8 139.6 233.8 133.4 232.4C127.2 230.9 88.5 221.3 88.5 221.3C88.5 221.3 121.2 172.1 132.8 158ZM239 137.1C242.4 136.9 249.2 127.6 246.4 125.2C243.5 122.8 239.9 122.6 237.5 124.7C226.7 134.2 235.6 137.3 239 137.1ZM311.5 166.5C315.9 161.5 318.6 156.3 314.9 154C311.2 151.7 306.8 155.4 303.5 161.5C298.1 171.7 307.1 171.4 311.5 166.5ZM273.4 153.1C277.2 152.7 285.7 140.3 282.2 137C278.6 133.7 274.3 137.8 271.7 143C268.8 148.5 269.6 153.5 273.4 153.1ZM210.8 153.8C207 150.6 164.9 156.1 157.9 158.6C154.3 159.8 140.9 176.4 138.9 182.4C136.9 188.4 146.5 190.1 166.2 186.9C185.9 183.7 207.2 177.5 213.4 173.2C219.7 169 214.6 157 210.8 153.8ZM292.6 191.6C299.2 189.3 284.1 180.5 273.7 174C263.3 167.5 243.8 177.1 240.1 185.1C236.6 192.7 241.2 192.9 244.6 195.7C248 198.6 286 193.9 292.6 191.6ZM164.5 236L178.2 230.5C188.5 228.5 202.3 223.9 212.1 225.5C217.6 226.4 226.1 229.4 236.4 232.4C243.6 228.3 258.6 219.4 263.6 214.1C270.2 207 231.8 212 231.8 212L207.6 196.3L123.3 209.4L112.4 217.7C124.1 220.8 151.1 233 164.5 236Z" fill="#231F20"/>
<path d="M112.3 217.8L123.2 209.5L207.5 196.4L231.7 212.1C231.7 212.1 270.1 207.1 263.5 214.2C258.6 219.5 243.6 228.3 236.3 232.5C226 229.4 217.5 226.5 212 225.6C202.2 224 188.4 228.6 178.1 230.6L164.4 236.1C151.1 233 124.1 220.8 112.3 217.8ZM150.2 208.6C146.6 210.1 149 210.3 151.4 209.7C153.8 209.1 151.7 208 150.2 208.6ZM163.9 206.6C160.4 206.8 165.5 210.1 167.8 208.1C170.2 206.3 165.7 206.5 163.9 206.6ZM172.7 207.2C168.5 207.2 171 213.9 174.8 212.3C178.7 210.7 174.7 207.2 172.7 207.2ZM178.5 203.4C173.8 205.3 178.6 209.9 181.7 207.5C184.8 205.2 180.8 202.5 178.5 203.4ZM189.1 212.4C195.3 210.9 190.5 207.2 187.5 206.5C184.6 205.9 182.9 214 189.1 212.4ZM186.2 202.5C183.6 203.4 185.4 205.5 187.6 204.6C189.7 203.6 188.3 201.8 186.2 202.5ZM193 203.1C189.4 204.2 192.9 208.6 196.2 207.4C199.5 206.2 195.7 202.3 193 203.1ZM204.9 210.1C207.6 208.3 204.8 205.4 203 205.7C197.7 206.7 202.2 211.9 204.9 210.1ZM213.2 214.7C216.7 212.5 212.1 210 210.5 210.7C207.2 212.4 209.7 216.9 213.2 214.7ZM201.1 200.1C197.1 201.3 201.4 205.7 204.5 203.8C207.6 201.9 203.8 199.4 201.1 200.1ZM208.2 201.9C204.9 202.7 208.2 207.6 211.3 206.8C214.3 206.1 210.3 201.4 208.2 201.9ZM215.9 206C212.1 205.6 216.2 211.7 219.8 210.5C223.3 209.5 217.8 206.2 215.9 206ZM231.3 216.1C228.9 217.9 233.8 219.2 235.9 218.2C238.2 217.2 233.1 214.8 231.3 216.1ZM237 222.8C238.3 221.7 236.6 220.1 235.2 221.6C233.6 223.3 235.7 223.9 237 222.8ZM227.9 214.5C231.2 212.6 224.9 210.9 223.8 211.5C221.1 213.1 224.7 216.5 227.9 214.5ZM229.6 222.2C233.2 220.2 228 216.8 225.9 217.9C222.3 219.7 226 224.2 229.6 222.2ZM219.1 214.1C214.5 215.3 217.5 219.4 220.3 218.6C223.1 217.8 221 213.6 219.1 214.1ZM222.5 224.2C225.6 223.3 222 219.1 219.7 221.6C218.7 222.7 219.4 225.1 222.5 224.2ZM214.8 221.2C218.3 219.5 214.5 217 213 217.7C210.1 219.4 211.3 223 214.8 221.2ZM207.1 217.8C210.2 217.2 205.3 213.9 204.3 214.3C199.5 216.4 204 218.4 207.1 217.8ZM195.6 210.4C191.9 212 194.2 216.7 197.8 215.5C201.3 214.3 197.6 209.5 195.6 210.4ZM201.2 220.9C204.1 220 199.8 217.2 197.4 218.5C193.9 220.4 198.3 221.8 201.2 220.9ZM193 218.2C196.1 216.8 192.2 213.8 189.2 214.6C184.4 215.9 189.9 219.6 193 218.2ZM181.3 211C178.1 212.3 180.7 217 183.8 215.3C186.8 213.6 183.4 210.1 181.3 211ZM186.2 220.6C189.5 219.4 185.3 217.8 183 218.9C181.1 219.8 182.9 221.8 186.2 220.6ZM178.1 219.1C180.2 216.8 177.1 214.6 175.8 214.9C170.1 216.6 176 221.4 178.1 219.1ZM170.3 214.6C173.2 212 169.5 212 166.3 212.1C162.5 212.3 167.4 217.3 170.3 214.6ZM157.1 208.6C152.3 210.8 158.2 215.4 161.2 212.5C164.2 209.5 158.8 207.8 157.1 208.6ZM164.3 218.4C166.8 217.3 161.5 214.5 159.5 215.4C156.1 217 161.9 219.5 164.3 218.4ZM154.5 216.7C156.5 215 153.4 211.7 151 212.6C147.4 214 152.5 218.3 154.5 216.7ZM141.5 210C139.2 211.7 143.5 214.8 146.4 212.6C149.3 210.3 142.9 209 141.5 210ZM148.4 218.8C151.2 218.4 146.6 215 145 215.7C141.3 217.4 145.6 219.1 148.4 218.8ZM139.2 216.4C141.8 214.7 137.8 211.9 135.9 212.4C132.7 213.2 136.7 218.1 139.2 216.4ZM132.2 212C133.2 210.4 129.5 210.1 127.8 211C125.1 212.5 131.3 213.6 132.2 212ZM133.2 217.6C133.8 216.5 132.9 215.3 131.3 215.8C127.9 216.8 132.5 218.7 133.2 217.6ZM125.2 216.9C126.6 217.1 126.1 215.1 126 213.8C125.9 212.5 122.6 213.8 121.3 214.5C120.4 215 123.8 216.7 125.2 216.9Z" fill="#D3D3D8"/>
<g opacity="0.7">
<path opacity="0.7" d="M239.2 157.8C231.7 157 236.6 146 238.1 143.1C239.7 140.3 235.2 140.4 238.2 138.4C238.6 138.1 239.1 137.6 239.6 136.9C243.1 135.7 248.8 127.6 246.3 125.2C247.2 123.4 247.8 122.2 247.8 122.2C248 121.3 248.6 120.7 249.5 120.4C252.9 122.9 255 126.6 249.9 133.4C242.1 143.8 232.3 153 237.6 156.8C238.1 157.2 238.7 157.5 239.2 157.8Z" fill="#272434"/>
</g>
<g opacity="0.7">
<path opacity="0.7" d="M282 148.5C285.9 141.7 285.9 135.3 285.9 135.3C285.9 135.3 286.3 134.4 287 133.1C291.2 135.8 294.3 138.4 290 145.9C284.1 156.1 278.9 160.4 284 163.9C278 165.1 278.1 155.3 282 148.5Z" fill="#272434"/>
</g>
<g opacity="0.7">
<path opacity="0.7" d="M305.6 183.9C303.6 177.2 312 172.8 316.7 168C319.6 165.1 321.8 159 323.1 154.8C325.3 158.1 324 162 320.9 165.9C316.4 171.6 306.1 180.1 309.8 184.3C313.5 188.5 319 193.7 310.8 201.7C302.6 209.7 249.5 236.1 249.5 236.1C249.5 236.1 304 204.8 310.5 199C317 193.2 307.7 190.6 305.6 183.9Z" fill="#272434"/>
</g>
<g opacity="0.5">
<path opacity="0.5" d="M233.8 103.1C233.8 103.1 238.2 104.2 233.7 108.9C229.2 113.6 216.3 115.6 207.8 119.7C199.3 123.9 194.2 127.2 188.8 128.4C183.5 129.6 177.4 128.5 182 121.8C186.6 115.1 233.8 103.1 233.8 103.1Z" fill="#1F1D19"/>
</g>
<path d="M181 125.6C180.3 123.5 177.7 120.4 188 114.3C198.3 108.2 220.3 103.6 225.5 100.9C230.7 98.2 241.1 102.9 232.2 107.4C223.3 111.9 208.2 116.8 199.2 121.6C190.2 126.5 182 128.9 181 125.6Z" fill="#D3D3D8"/>
<g opacity="0.5">
<path opacity="0.5" d="M257.1 115.4C257 112.8 258.3 114.6 259 118.8C259.8 123.1 259.1 123.3 254.2 130.3C249.2 137.3 231.2 151.1 230.8 140.5C230.7 134.6 257.1 115.4 257.1 115.4Z" fill="#1F1D19"/>
</g>
<path d="M230.9 140.6C228.1 137.9 232.7 133 238.5 126.1C244.3 119.2 257.7 107.3 259 115.6C260.2 123.8 237.8 147.4 230.9 140.6Z" fill="#D3D3D8"/>
<g opacity="0.5">
<path opacity="0.5" d="M278.5 132.5C279.6 130.7 283.8 129 284.2 134.5C284.7 140 282.4 144.1 278.9 147.1C275.3 150.1 265.1 159.1 260.1 159.1C255.1 159.1 250.2 156.3 253.4 152.6C256.6 148.9 278.5 132.5 278.5 132.5Z" fill="#1F1D19"/>
</g>
<path d="M278.7 142.6C274.5 145.8 266.2 156 257.8 155.9C249.4 155.8 249.5 152 261.5 142.7C273.5 133.4 276.4 125.7 281.9 130C287.3 134.2 282.5 139.8 278.7 142.6Z" fill="#D3D3D8"/>
<g opacity="0.5">
<path opacity="0.5" d="M309.1 141.8C309.1 141.8 317 144 312.4 146.9C307.8 149.8 296.1 153.7 293.5 157.9C290.9 162.2 281.9 173.4 278 173.7C276 173.9 269.3 170 276.5 161.1C283.8 152.2 307.8 141.3 309.1 141.8Z" fill="#1F1D19"/>
</g>
<path d="M274.8 162C279.3 152.9 282.8 143.7 290.6 139.6C298.4 135.6 305.4 131.8 309.4 135.7C313.5 139.6 316.1 142.7 311.5 144.3C306.9 145.9 301.6 150.8 296.2 152.8C290.8 154.9 286.3 164.1 281.5 168.5C276.7 172.9 270.3 171 274.8 162Z" fill="#D3D3D8"/>
<path d="M100 86.2C100 86.2 106.3 111.6 111.8 112.6C117.4 113.6 160.1 123.7 161.4 122.6C161.4 122.6 167 117 150.3 107.5C150.4 107.4 107.1 82.7 100 86.2Z" fill="#DD2B14"/>
<path d="M102.7 86.6C102.7 86.6 108.9 107.3 114.1 108.2C119.2 109.1 154.8 119.6 156.1 118.6C156.1 118.6 164.6 114.9 149.2 106.2C149.1 106.2 109.2 83.4 102.7 86.6Z" fill="#DE5012"/>
<path d="M111.7 88C111.7 88 116.1 102.6 119.7 103.3C123.3 104 148.5 111.4 149.3 110.6C149.3 110.6 155.3 108 144.4 101.8C144.4 101.8 116.3 85.8 111.7 88Z" fill="#231F20"/>
<path d="M366 215.4V214.6L361.2 214.5V215.3L366 215.4ZM353.1 215.2V214.4L348.3 214.3V215.1L353.1 215.2ZM340.2 215V214.2L335.4 214.1V214.9L340.2 215ZM327.2 214.8V214L322.4 213.9V214.7L327.2 214.8ZM314.3 214.5V213.7L309.5 213.6V214.4L314.3 214.5ZM301.4 214.3V213.5L296.6 213.4V214.2L301.4 214.3ZM373.6 212.2L378 210.2L377.7 209.5L373.3 211.5L373.6 212.2ZM385.3 206.8L389.7 204.8L389.4 204.1L385 206.1L385.3 206.8ZM397 201.3L401.4 199.3L401.1 198.6L396.7 200.6L397 201.3ZM408.7 195.9L413.1 193.9L412.8 193.2L408.4 195.2L408.7 195.9Z" fill="#C4190C"/>
<path d="M33.3 147.5L35.6 143.2L34.2 142.4L31.9 146.7L33.3 147.5ZM39.3 136L41.6 131.7L40.2 130.9L37.9 135.2L39.3 136ZM45.3 124.6L47.6 120.3L46.2 119.5L43.9 123.8L45.3 124.6ZM48.4 112L48.5 107.1H46.9L46.8 112H48.4ZM48.5 99.1V94.2H46.9V99.1H48.5ZM48.6 86.1V81.2H47V86.1H48.6ZM48.7 73.2V68.3H47.1V73.2H48.7ZM47.1 60.3H48.7C48.7 58.6 48.7 56.9 48.7 55.4H47.1C47 56.9 47.1 58.6 47.1 60.3ZM88.1 49.5L88.2 47.9C86.6 47.8 85 47.7 83.4 47.5L83.2 49.1C84.9 49.2 86.5 49.4 88.1 49.5ZM96.3 49.4C97.9 49.2 99.5 49 101.2 48.7L100.9 47.1C99.3 47.4 97.7 47.6 96.2 47.8L96.3 49.4ZM75.2 48L75.4 46.4C73.8 46.1 72.2 45.9 70.6 45.6L70.3 47.2C72 47.5 73.6 47.7 75.2 48ZM46.8 47.4L48.4 47.3C48.4 46.9 48.3 46.6 48.3 46.3C48.3 46.2 48.3 46.1 48.3 46C48.3 45.4 48.5 44.8 49.9 44.5L49.6 42.9C47.2 43.4 46.7 44.8 46.7 46C46.7 46.1 46.7 46.3 46.7 46.5C46.8 46.7 46.8 47 46.8 47.4ZM109.1 46.6C110.6 46.1 112.2 45.5 113.7 44.9L113.1 43.4C111.6 44 110.1 44.6 108.6 45.1L109.1 46.6ZM62.5 45.8L62.8 44.2C61.1 43.9 59.5 43.6 58 43.4L57.8 45C59.2 45.2 60.8 45.5 62.5 45.8ZM121.1 41.4C122.5 40.7 124 39.9 125.4 39L124.6 37.6C123.2 38.4 121.8 39.2 120.4 39.9L121.1 41.4ZM132.3 34.7C134.8 33 136.2 31.8 136.3 31.8L135.3 30.5C135.3 30.5 133.9 31.7 131.4 33.3L132.3 34.7Z" fill="#DD2B14"/>
<path d="M106.8 192.3L107.6 190.9L103.4 188.4L102.6 189.8L106.8 192.3ZM95.8 185.6L96.6 184.2L92.4 181.7L91.6 183.1L95.8 185.6ZM84.7 179L85.5 177.6L81.3 175.1L80.5 176.5L84.7 179ZM73.6 172.3L74.4 170.9L70.2 168.4L69.4 169.8L73.6 172.3ZM62.5 165.6L63.3 164.2L59.1 161.7L58.3 163.1L62.5 165.6ZM51.5 159L52.3 157.6L48.1 155.1L47.3 156.5L51.5 159ZM40.4 152.3L41.2 151L37 148.5L36.2 149.9L40.4 152.3Z" fill="#DD2B14"/>
<path d="M98 200.8L98.5 199.3C98.5 199.3 96.8 198.7 93.9 197.7L93.4 199.2C96.3 200.2 98 200.8 98 200.8ZM85.7 196.8L86.2 195.3C84.7 194.9 83.2 194.4 81.5 193.9L81.1 195.5C82.7 195.9 84.3 196.3 85.7 196.8ZM73.3 193.3L73.7 191.7C72.2 191.3 70.6 190.9 69 190.5L68.6 192.1C70.2 192.5 71.8 192.9 73.3 193.3ZM60.7 190.2L61 188.6C59.4 188.3 57.8 187.9 56.2 187.6L55.9 189.2C57.6 189.6 59.2 189.9 60.7 190.2ZM48.1 187.8L48.4 186.2C46.8 185.9 45.2 185.7 43.6 185.5L43.4 187.1C44.9 187.4 46.5 187.6 48.1 187.8ZM17.8 187C19.3 186.7 20.9 186.5 22.5 186.4L22.4 184.8C20.7 185 19 185.2 17.5 185.5L17.8 187ZM35.3 186.4L35.4 184.8C33.7 184.7 32.1 184.6 30.5 184.6V186.2C32 186.2 33.6 186.2 35.3 186.4ZM19.2 180.3L20.7 175.7L19.2 175.2L17.7 179.8L19.2 180.3ZM23.1 168L24.6 163.4L23.1 162.9L21.6 167.5L23.1 168ZM27.1 155.7L27.9 153.2L26.4 152.7L25.6 155.2L27.1 155.7Z" fill="#C4190C"/>
<path d="M176.1 113.6L176.6 112.1C176.6 112.1 176.2 111.9 175.5 111.6L174.8 113.1C175.7 113.4 176.1 113.6 176.1 113.6ZM167.8 108.9L168.8 107.6C167.5 106.7 166.3 105.6 165.2 104.6L164.1 105.8C165.2 106.8 166.5 107.9 167.8 108.9ZM158.7 99.4L160 98.5C159.1 97.2 158.3 95.8 157.7 94.4L156.2 95.1C157 96.6 157.8 98 158.7 99.4ZM153.7 87.3L155.3 87C155.2 86.6 155.1 86.2 155.1 85.8C154.9 84.7 154.7 83.5 154.5 82.3L152.9 82.6C153.1 83.8 153.3 84.9 153.5 86.1C153.5 86.4 153.6 86.8 153.7 87.3ZM151.1 74.6L152.7 74.2C152.3 72.6 151.9 71.1 151.5 69.5L149.9 69.9C150.3 71.5 150.7 73.1 151.1 74.6ZM147.6 62.2L149.1 61.7C148.6 60.1 148.2 58.6 147.7 57.1L146.2 57.6C146.7 59.1 147.2 60.6 147.6 62.2ZM143.8 49.9L145.3 49.4C144.8 47.8 144.3 46.2 143.8 44.8L142.3 45.3C142.7 46.7 143.2 48.3 143.8 49.9ZM139.6 37.7L141.1 37.2C140.1 34.3 139.4 32.6 139.4 32.6L137.9 33.2C137.9 33.1 138.6 34.8 139.6 37.7Z" fill="#DD2B14"/>
<path d="M162.3 126.3L162.6 124.7L154.6 123.3L154.3 124.9L162.3 126.3ZM146.4 123.6L146.7 122L138.7 120.6L138.4 122.2L146.4 123.6ZM130.4 120.9L130.7 119.3L122.7 117.9L122.4 119.5L130.4 120.9ZM114.5 118.2L114.8 116.6L112 116.1C111.6 115.8 110.2 114.7 108.6 112.9L107.4 114C109.5 116.4 111.2 117.5 111.2 117.6L111.5 117.7L114.5 118.2ZM102.6 107.3L104 106.5C102.7 104.2 101.7 101.8 100.9 99.3L99.4 99.8C100.1 102.4 101.2 104.9 102.6 107.3ZM97.7 91.7L99.3 91.5C99.2 90.1 99.1 88.6 99.1 87.1C99.1 86.7 99.1 86.2 99.1 85.8H97.5C97.5 86.3 97.5 86.7 97.5 87.1C97.4 88.7 97.5 90.2 97.7 91.7Z" fill="#DD2B14"/>
<path d="M324.7 244.3L328.6 241.4L327.6 240.1L323.7 243L324.7 244.3ZM334.9 236.5L338.8 233.6L337.8 232.3L333.9 235.2L334.9 236.5ZM345.1 229.8H346.7C347.8 229.8 348.9 229.7 350 229.7L349.9 228.1C348.8 228.2 347.7 228.2 346.6 228.2H345.1V229.8ZM358 229.2C359.7 229.1 361.3 229 362.8 228.8L362.7 227.2C361.1 227.3 359.5 227.4 357.9 227.6L358 229.2ZM370.9 228C372.6 227.8 374.2 227.6 375.7 227.4L375.5 225.8C373.9 226 372.4 226.2 370.7 226.4L370.9 228ZM383.7 226.3C385.4 226 387 225.8 388.5 225.5L388.2 223.9C386.7 224.2 385.1 224.5 383.4 224.7L383.7 226.3ZM396.5 223.9C398.2 223.5 399.7 223.1 401.2 222.7L400.8 221.1C399.3 221.5 397.8 221.9 396.1 222.3L396.5 223.9ZM409 220.3C410.6 219.7 412.1 219.2 413.6 218.6L413 217.1C411.6 217.7 410.1 218.3 408.5 218.8L409 220.3ZM420.9 214.9C423.8 213.1 424.9 211.8 424.9 211.8L423.7 210.8C423.7 210.8 422.7 211.9 420.1 213.6L420.9 214.9Z" fill="#C4190C"/>
</g>
<defs>
<clipPath id="clip0_49_59">
<rect width="438.2" height="287.5" fill="white" transform="matrix(-1 0 0 1 438.2 0)"/>
</clipPath>
</defs>
</svg>
