<svg width="440" height="179" viewBox="0 0 440 179" fill="none" xmlns="http://www.w3.org/2000/svg">
<g clip-path="url(#clip0_49_229)">
<path d="M436.261 82.007C436.261 82.007 361.058 70.7675 314.108 61.193C267.158 51.2023 202.342 4.57909 196.525 0.416302C191.124 -3.74649 163.702 50.7861 176.997 76.1791C190.293 101.572 291.671 102.821 291.671 102.821L423.796 101.988L436.261 82.007Z" fill="#5B5BC1"/>
<path d="M434.183 139.037C434.183 139.037 445.401 92.8303 436.261 82.4233C389.726 99.907 287.101 85.7535 265.496 77.4279C243.89 69.1024 9.14066 55.7814 9.14066 55.7814C9.14066 55.7814 -14.9576 128.63 15.7884 146.53C47.3654 158.602 81.0198 155.688 81.0198 155.688H143.343L190.708 159.435L269.235 160.267L354.825 149.028L410.916 143.616L434.183 139.037Z" fill="#18145B"/>
<path d="M8.30969 141.535C8.30969 141.535 101.794 143.616 137.526 147.363C171.18 151.109 243.89 156.937 296.242 153.191C365.212 148.612 437.923 129.879 437.923 129.879L439.584 151.109C439.584 151.109 432.106 154.023 419.226 157.77L414.655 149.86L408.423 160.684C405.93 161.516 403.437 161.933 400.944 162.765L395.958 153.607L388.895 165.679C386.818 166.095 384.74 166.512 382.663 166.928L377.262 157.354L370.198 169.426C368.121 169.842 366.043 170.258 363.966 170.674L358.149 161.1L351.501 173.172C349.424 173.588 347.347 174.005 344.854 174.005L339.452 164.847L333.22 175.67C330.727 176.086 327.819 176.086 325.326 176.502L320.755 168.593L315.77 177.335C312.446 177.751 309.122 177.751 305.798 178.167L302.474 172.34L298.735 178.584C294.58 178.584 290.009 179 285.855 179C210.652 180.249 171.596 174.005 125.892 173.588L119.245 162.349L112.597 174.005C111.35 174.005 110.519 174.005 109.273 174.005C108.857 174.005 108.442 174.005 107.611 174.005L100.963 162.349L93.8999 174.421C92.6534 174.421 90.9915 174.421 89.745 174.421L82.6817 162.349L75.6185 174.837C74.372 174.837 73.1256 174.837 71.8791 174.837L64.4003 162.349L56.9216 175.67C56.0906 175.67 54.8442 175.67 54.0132 175.67L46.5345 162.349L38.6402 176.086C36.5628 176.086 34.4853 176.086 32.4079 176.086L24.5137 162.349L17.0349 175.253C14.1265 174.837 12.0491 174.421 10.8026 173.172C7.8942 161.933 8.30969 141.535 8.30969 141.535Z" fill="#381803"/>
<path d="M137.526 147.363C171.18 151.109 243.89 156.937 296.242 153.191C365.212 148.612 437.923 129.879 437.923 129.879L438.754 137.788C418.81 143.2 345.269 162.349 291.671 163.181C228.933 163.598 169.518 157.77 127.97 154.856C93.4845 152.358 39.4712 150.277 9.14074 151.942C8.72526 146.114 9.14074 141.535 9.14074 141.535C9.14074 141.535 101.794 143.616 137.526 147.363Z" fill="#5E290B"/>
<path d="M366.874 105.319C371.029 105.319 375.184 105.319 378.923 104.902V99.4907C375.184 99.4907 371.029 99.907 366.874 99.907H364.797V105.319H366.874ZM359.396 104.902V99.4907C354.825 99.4907 350.255 99.0744 345.269 99.0744L344.854 104.486C349.839 104.902 354.825 104.902 359.396 104.902ZM384.325 104.486C389.311 104.07 393.881 103.654 398.451 103.237L398.036 97.8256C393.466 98.2419 388.895 98.6582 383.909 99.0744L384.325 104.486ZM339.868 104.07L340.283 98.6582C335.297 98.2419 330.727 97.8256 326.157 97.4093L325.741 102.821C330.312 103.654 334.882 103.654 339.868 104.07ZM403.853 102.821C408.839 101.988 413.409 101.572 417.979 100.74L417.148 95.3279C412.578 96.1605 408.008 96.993 403.437 97.4093L403.853 102.821ZM320.34 102.405L320.755 96.993C315.77 96.5768 311.199 96.1605 306.629 95.3279L305.798 100.74C310.784 101.572 315.354 101.988 320.34 102.405ZM300.812 100.323L301.643 94.9116C297.073 94.0791 292.087 93.6628 287.932 92.8303L287.101 98.2419C291.256 98.6582 296.242 99.4907 300.812 100.323ZM422.965 99.4907C427.951 98.2419 432.521 96.993 436.676 95.7442L435.014 90.3326C430.859 91.5814 426.289 92.8303 421.719 93.6628L422.965 99.4907ZM281.7 96.993L282.531 91.5814C277.96 90.7489 273.39 89.9163 268.82 88.6675L267.573 94.0791C272.143 95.3279 277.129 96.1605 281.7 96.993ZM262.587 92.8303L263.834 87.4186C259.263 86.1698 255.109 84.921 250.123 83.6721L248.461 89.0837C253.447 90.3326 258.017 91.5814 262.587 92.8303Z" fill="#CC7723"/>
<path d="M243.475 87.4186L245.137 82.4233L238.489 80.3419L236.827 85.3372L243.475 87.4186Z" fill="#CC7723"/>
<path d="M260.925 113.228C260.925 113.228 283.362 61.193 245.552 39.5465C207.743 17.9 174.089 47.8721 169.934 62.8582C146.667 61.6093 39.8867 46.6233 14.542 34.1349C3.73937 42.4605 2.90841 66.6047 3.73938 72.0163C50.2738 87.8349 260.925 113.228 260.925 113.228Z" fill="#322A7F"/>
<path d="M243.89 58.2791C242.229 62.0256 243.89 66.1884 247.63 67.8535C251.369 69.5186 255.524 67.8535 257.186 64.107C258.848 60.3605 257.186 56.1977 253.447 54.5326C249.707 53.2837 245.552 54.9489 243.89 58.2791Z" fill="#381803"/>
<path d="M223.532 49.5372C221.87 53.2837 223.532 57.4465 227.271 59.1116C231.01 60.7768 235.165 59.1116 236.827 55.3651C238.489 51.6186 236.827 47.4558 233.088 45.7907C229.348 44.1256 224.778 45.7907 223.532 49.5372Z" fill="#381803"/>
<path d="M202.757 40.3791C201.095 44.1256 202.757 48.2884 206.497 49.9535C210.236 51.6186 214.391 49.9535 216.053 46.207C217.715 42.4605 216.053 38.2977 212.313 36.6326C208.574 34.9675 204.419 36.6326 202.757 40.3791Z" fill="#381803"/>
<path d="M213.56 43.7093C212.729 45.7907 210.236 46.6233 208.574 45.7907C206.497 44.9582 205.666 42.4605 206.497 40.7954L221.039 8.32562C223.116 9.57446 225.194 11.2396 227.686 12.4884L213.56 43.7093Z" fill="#CC7723"/>
<path d="M233.919 52.8675C233.088 54.9489 230.595 55.7814 228.933 54.9489C226.856 54.1163 226.025 51.6186 226.856 49.9535L239.736 20.3977C241.813 21.6465 244.306 22.8954 246.383 24.5605L233.919 52.8675Z" fill="#CC7723"/>
<path d="M254.278 61.6093C253.447 63.6907 250.954 64.5233 249.292 63.6907C247.214 62.8582 246.383 60.3605 247.214 58.6954L259.263 31.2209C261.341 32.4698 263.834 33.7186 265.911 34.9675L254.278 61.6093Z" fill="#CC7723"/>
</g>
<defs>
<clipPath id="clip0_49_229">
<rect width="440" height="179" fill="white" transform="matrix(-1 0 0 1 440 0)"/>
</clipPath>
</defs>
</svg>
