<svg width="354" height="200" viewBox="0 0 354 200" fill="none" xmlns="http://www.w3.org/2000/svg">
<path d="M335.175 107.975C335.175 107.995 335.175 108.025 335.175 108.025C334.685 110.195 332.735 113.375 327.155 117.645C315.415 126.625 201.425 129.095 147.545 128.445C147.985 127.355 151.785 118.655 156.055 114.905C160.595 110.885 205.265 98.8455 203.145 90.2855C200.995 81.7255 164.025 70.5255 164.025 70.5255C163.675 69.8855 163.065 69.2455 162.125 68.5555C154.455 62.9855 156.555 51.8355 161.435 44.8755C166.295 37.9155 222.015 74.4755 241.165 83.1855C260.305 91.8655 334.485 104.425 334.485 104.425C334.485 104.425 334.485 104.445 334.505 104.475C334.555 104.745 334.805 106.025 335.175 107.975Z" fill="#2AA8DB"/>
</svg>
