<svg width="354" height="200" viewBox="0 0 354 200" fill="none" xmlns="http://www.w3.org/2000/svg">
<path d="M156.055 114.915C151.785 118.665 147.985 127.375 147.545 128.455C147.055 128.435 146.585 128.435 146.115 128.435C123.345 128.135 97.0053 126.755 74.3053 125.275C74.2053 124.065 72.2853 117.035 58.6653 101.005C42.0653 81.4654 24.9453 72.1454 24.9453 72.1454C30.7453 61.1654 39.5753 55.3254 39.5753 55.3254C39.5753 55.3254 43.5253 68.9654 60.4653 73.0854C75.9853 76.8554 135.625 79.6254 144.365 78.6554C154.355 77.5454 166.365 74.9754 164.025 70.5354C164.025 70.5354 201.005 81.7354 203.145 90.2954C205.275 98.8554 160.595 110.895 156.055 114.915Z" fill="#2AA8DB"/>
<path opacity="0.2" d="M203.145 90.2954C200.995 81.7354 164.025 70.5354 164.025 70.5354C164.435 71.3154 164.385 72.0354 163.995 72.7054C169.405 74.6354 174.785 76.6654 180.045 78.9554C183.505 80.4554 186.935 82.0554 190.225 83.9154C192.605 85.2654 195.285 86.7854 196.995 88.9954C200.965 94.1554 178.045 100.625 173.845 102.225C167.705 104.565 161.825 106.575 156.475 110.375C152.275 113.355 149.005 117.275 146.845 121.945C146.585 122.495 146.385 123.075 146.155 123.635C123.065 124.745 101.805 123.505 76.9753 121.795C75.7253 118.765 74.3653 115.775 72.7953 112.895C67.4753 103.075 59.5053 95.2454 51.3453 87.7454C46.8553 83.6154 42.0353 79.9954 36.7553 76.9454C33.1053 74.8354 29.3153 72.9454 25.8153 70.5854C25.5153 71.0954 25.2253 71.6054 24.9453 72.1454C24.9453 72.1454 42.0653 81.4654 58.6653 101.005C67.3653 111.245 71.2753 117.805 73.0053 121.525C73.2453 122.045 73.4453 122.505 73.6053 122.925C73.6053 122.935 73.6153 122.945 73.6153 122.955C73.9253 123.755 74.1053 124.335 74.2053 124.755C74.2153 124.785 74.2253 124.825 74.2253 124.855C74.2653 125.035 74.2853 125.185 74.2953 125.285C96.4553 126.725 122.065 128.075 144.455 128.415C144.995 128.425 145.565 128.435 146.105 128.445C146.575 128.445 147.045 128.445 147.535 128.465C147.565 128.405 147.605 128.305 147.645 128.195C147.675 128.125 147.715 128.045 147.745 127.965C147.765 127.915 147.785 127.865 147.815 127.805C147.875 127.665 147.945 127.515 148.025 127.345C148.035 127.335 148.035 127.315 148.045 127.305C148.475 126.365 149.125 124.995 149.935 123.465C151.515 120.505 153.705 116.965 156.045 114.915C160.595 110.895 205.275 98.8554 203.145 90.2954Z" fill="black"/>
<path d="M50.9555 73.9854C86.6255 84.9854 139.916 84.8254 167.106 78.5754C170.406 77.8154 167.126 72.6154 164.956 70.0154C164.336 69.2654 163.586 68.4154 162.776 67.3454C160.216 63.9654 158.056 60.4554 157.186 56.4054C156.996 60.7854 158.376 64.9854 162.236 67.7854C163.176 68.4754 163.786 69.1154 164.136 69.7554H164.126L163.216 72.9354C160.166 75.4754 151.786 77.0754 144.466 77.8854C137.296 78.4654 104.216 77.1754 81.2155 75.1154C72.3355 74.2954 64.8055 73.3354 60.5755 72.3054C53.5655 70.3254 48.7855 66.9054 45.5755 63.5954C45.5755 63.5954 45.5755 63.5854 45.5855 63.5854C41.0955 58.9554 39.6855 54.5254 39.6855 54.5254C39.6855 54.5254 38.3555 55.4054 36.3955 57.1154C37.6555 65.5354 44.2455 71.9154 50.9555 73.9854Z" fill="white"/>
</svg>
