<svg width="354" height="200" viewBox="0 0 354 200" fill="none" xmlns="http://www.w3.org/2000/svg">
<path d="M337.445 139.656C335.055 149.156 308.285 151.276 278.065 156.356C247.825 161.466 39.945 154.236 31.385 153.696C22.805 153.156 18.265 137.366 16.385 130.166C14.515 122.936 20.065 121.136 20.065 121.136C20.065 121.136 43.865 123.306 74.215 125.276C74.265 125.526 74.315 125.546 74.315 125.276C96.985 126.756 123.355 128.136 146.125 128.436C146.595 128.436 147.065 128.436 147.555 128.456C201.435 129.076 315.425 126.626 327.165 117.656C332.735 113.386 334.685 110.206 335.185 108.036C336.555 115.456 339.295 132.356 337.445 139.656Z" fill="black"/>
</svg>
